<svg version="1.1" id="Layer_1" xmlns="http://www.w3.org/2000/svg" xmlns:xlink="http://www.w3.org/1999/xlink" x="0px" y="0px"
	 width="100%" viewBox="0 0 240 245" enable-background="new 0 0 240 245" xml:space="preserve">
<path fill="#020202" opacity="1.000000" stroke="none" 
	d="
M241.000000,214.000000 
	C241.000000,224.661850 241.000000,235.323685 241.000000,245.989151 
	C161.040970,245.992767 81.081947,245.992767 1.061461,245.992767 
	C1.061461,164.411255 1.061461,82.822449 1.061461,1.116822 
	C80.885811,1.116822 160.771851,1.116822 241.000000,1.116822 
	C241.000000,71.020523 241.000000,141.041595 240.568008,211.511703 
	C229.081497,211.841614 219.307098,208.510956 211.184418,200.764801 
	C235.783783,170.603531 244.714951,135.055389 235.877640,98.078873 
	C216.164505,15.596527 120.309822,-18.502357 53.204235,30.133186 
	C48.894028,33.257057 45.242424,34.812138 39.781525,33.577263 
	C34.575199,32.399952 28.873899,32.031464 23.177736,35.156532 
	C29.679539,36.358177 35.457985,37.426132 41.236427,38.494091 
	C41.437355,39.159981 41.638279,39.825871 41.839207,40.491760 
	C40.710762,41.212196 39.405243,41.755077 38.479267,42.678535 
	C-8.867541,89.896591 -5.265059,167.764664 42.138054,210.702271 
	C68.695320,234.757767 99.774162,245.017593 135.375381,241.151367 
	C161.017807,238.366638 183.205231,227.878067 202.144653,210.370895 
	C203.289734,209.312408 205.801926,208.340637 206.938782,208.881699 
	C217.816727,214.058792 229.147873,215.612869 241.000000,214.000000 
z"/>
<path fill="#F8F8F8" opacity="1.000000" stroke="none" 
	d="
M241.000000,213.666672 
	C229.147873,215.612869 217.816727,214.058792 206.938782,208.881699 
	C205.801926,208.340637 203.289734,209.312408 202.144653,210.370895 
	C183.205231,227.878067 161.017807,238.366638 135.375381,241.151367 
	C99.774162,245.017593 68.695320,234.757767 42.138054,210.702271 
	C-5.265059,167.764664 -8.867541,89.896591 38.479267,42.678535 
	C39.405243,41.755077 40.710762,41.212196 41.839207,40.491760 
	C41.638279,39.825871 41.437355,39.159981 41.236427,38.494091 
	C35.457985,37.426132 29.679539,36.358177 23.177736,35.156532 
	C28.873899,32.031464 34.575199,32.399952 39.781525,33.577263 
	C45.242424,34.812138 48.894028,33.257057 53.204235,30.133186 
	C120.309822,-18.502357 216.164505,15.596527 235.877640,98.078873 
	C244.714951,135.055389 235.783783,170.603531 211.184418,200.764801 
	C219.307098,208.510956 229.081497,211.841614 240.568008,211.980362 
	C241.000000,212.444443 241.000000,212.888901 241.000000,213.666672 
M116.025497,174.514801 
	C101.885246,143.783951 87.744987,113.053108 73.139221,81.310562 
	C72.707390,83.960571 72.376884,85.416275 72.244438,86.889778 
	C70.842499,102.485527 69.455849,118.082687 68.098122,133.682343 
	C67.000397,146.294662 65.852905,158.903885 64.919449,171.528687 
	C64.511398,177.047516 66.743988,179.437973 72.162384,180.189835 
	C73.006165,180.306915 73.822205,180.623871 74.651070,180.848389 
	C74.609726,181.093826 74.568390,181.339249 74.527054,181.584686 
	C62.688881,181.584686 50.850712,181.584686 39.012539,181.584686 
	C39.482422,180.518021 40.132450,180.152725 40.811737,180.086182 
	C50.539959,179.133423 54.244396,175.944443 55.397991,166.379425 
	C58.727859,138.769791 61.842560,111.134178 65.029831,83.507385 
	C65.620827,78.384666 67.911858,72.633438 66.360680,68.255684 
	C62.868248,58.399296 56.398956,50.053360 47.788956,43.172771 
	C16.448853,73.952599 4.634569,110.491669 15.427213,152.430801 
	C26.568213,195.723602 55.775711,222.825394 99.109528,232.478027 
	C137.034576,240.925842 170.585526,229.966324 199.128098,203.481812 
	C185.465698,187.468704 181.484940,179.792664 178.864395,162.057877 
	C175.092590,136.531967 171.700378,110.950005 168.123337,85.395157 
	C167.932068,84.028793 167.529480,82.692017 167.225266,81.341469 
	C166.882446,81.310860 166.539627,81.280251 166.196808,81.249634 
	C151.124039,115.618011 136.051285,149.986389 120.872795,184.595825 
	C119.437973,181.652084 117.869629,178.434418 116.025497,174.514801 
M142.618988,16.717428 
	C110.394653,11.215645 81.119392,17.870787 54.651306,37.589413 
	C71.765770,51.265442 73.721283,53.827534 82.996674,73.957352 
	C95.645950,101.409325 108.329323,128.845596 121.007896,156.284058 
	C121.693245,157.767258 122.469070,159.208664 123.404480,161.071106 
	C140.168304,123.558746 156.711121,86.540901 173.253952,49.523056 
	C174.772797,50.594791 174.954391,51.060143 175.030945,51.542175 
	C181.005707,89.165947 186.875366,126.806801 192.998642,164.406357 
	C194.826553,175.630493 198.666641,186.174713 206.341873,195.732895 
	C230.529221,165.070724 238.378296,131.139145 227.425476,94.247139 
	C214.968979,52.290245 185.980209,26.890331 142.618988,16.717428 
z"/>
<path fill="#020202" opacity="1.000000" stroke="none" 
	d="
M116.163391,174.865768 
	C117.869629,178.434418 119.437973,181.652084 120.872795,184.595825 
	C136.051285,149.986389 151.124039,115.618011 166.196808,81.249634 
	C166.539627,81.280251 166.882446,81.310860 167.225266,81.341469 
	C167.529480,82.692017 167.932068,84.028793 168.123337,85.395157 
	C171.700378,110.950005 175.092590,136.531967 178.864395,162.057877 
	C181.484940,179.792664 185.465698,187.468704 199.128098,203.481812 
	C170.585526,229.966324 137.034576,240.925842 99.109528,232.478027 
	C55.775711,222.825394 26.568213,195.723602 15.427213,152.430801 
	C4.634569,110.491669 16.448853,73.952599 47.788956,43.172771 
	C56.398956,50.053360 62.868248,58.399296 66.360680,68.255684 
	C67.911858,72.633438 65.620827,78.384666 65.029831,83.507385 
	C61.842560,111.134178 58.727859,138.769791 55.397991,166.379425 
	C54.244396,175.944443 50.539959,179.133423 40.811737,180.086182 
	C40.132450,180.152725 39.482422,180.518021 39.012539,181.584686 
	C50.850712,181.584686 62.688881,181.584686 74.527054,181.584686 
	C74.568390,181.339249 74.609726,181.093826 74.651070,180.848389 
	C73.822205,180.623871 73.006165,180.306915 72.162384,180.189835 
	C66.743988,179.437973 64.511398,177.047516 64.919449,171.528687 
	C65.852905,158.903885 67.000397,146.294662 68.098122,133.682343 
	C69.455849,118.082687 70.842499,102.485527 72.244438,86.889778 
	C72.376884,85.416275 72.707390,83.960571 73.139221,81.310562 
	C87.744987,113.053108 101.885246,143.783951 116.163391,174.865768 
z"/>
<path fill="#020202" opacity="1.000000" stroke="none" 
	d="
M143.040314,16.784847 
	C185.980209,26.890331 214.968979,52.290245 227.425476,94.247139 
	C238.378296,131.139145 230.529221,165.070724 206.341873,195.732895 
	C198.666641,186.174713 194.826553,175.630493 192.998642,164.406357 
	C186.875366,126.806801 181.005707,89.165947 175.030945,51.542175 
	C174.954391,51.060143 174.772797,50.594791 173.253952,49.523056 
	C156.711121,86.540901 140.168304,123.558746 123.404480,161.071106 
	C122.469070,159.208664 121.693245,157.767258 121.007896,156.284058 
	C108.329323,128.845596 95.645950,101.409325 82.996674,73.957352 
	C73.721283,53.827534 71.765770,51.265442 54.651306,37.589413 
	C81.119392,17.870787 110.394653,11.215645 143.040314,16.784847 
z"/>
</svg>