<svg version="1.1" id="Layer_1" xmlns="http://www.w3.org/2000/svg" xmlns:xlink="http://www.w3.org/1999/xlink" x="0px" y="0px"
	 width="100%" viewBox="0 0 496 496" enable-background="new 0 0 496 496" xml:space="preserve">
<path fill="#000000" opacity="1.000000" stroke="none" 
	d="
M176.824203,185.138733 
	C175.498169,182.450836 174.329651,180.099731 173.161118,177.748642 
	C172.723358,177.777588 172.285599,177.806549 171.847839,177.835510 
	C171.847839,191.180588 171.847839,204.525665 171.847839,218.487213 
	C168.029510,216.726273 168.847031,214.293579 168.836044,212.345673 
	C168.772217,201.027740 168.572998,189.700607 168.945160,178.393875 
	C169.171616,171.513718 167.969543,165.251938 164.474136,159.321518 
	C163.061325,156.924484 161.558090,154.472870 160.967377,150.785400 
	C166.840164,149.533585 172.666199,149.798904 178.490143,150.539719 
	C179.691925,150.692596 180.248352,151.988419 180.758728,153.045425 
	C190.814178,173.870209 200.867477,194.696060 210.892166,215.535645 
	C211.156952,216.086121 211.097000,216.792801 211.269577,217.988541 
	C205.474426,218.647430 199.890991,218.424789 194.323013,218.141235 
	C192.369415,218.041779 191.766113,216.184311 191.051910,214.707703 
	C186.343262,204.972626 181.667908,195.221436 176.824203,185.138733 
z"/>
<path fill="#000000" opacity="1.000000" stroke="none" 
	d="
M308.468231,171.523819 
	C311.365234,165.476730 314.092194,159.766098 316.825653,154.058548 
	C317.470062,152.712997 317.936554,150.911392 319.527649,150.664963 
	C326.696930,149.554565 333.856842,149.718323 342.300201,150.748245 
	C334.214569,160.076385 336.529144,170.191879 336.328766,179.826996 
	C336.100128,190.819550 336.164825,201.822845 336.356140,212.817047 
	C336.424835,216.762665 335.376740,218.439529 331.060425,218.428345 
	C318.663635,218.396210 318.665070,218.568344 318.663391,205.987213 
	C318.661591,192.490341 318.674591,178.993423 318.626709,165.496704 
	C318.621063,163.901230 319.065399,162.221375 317.974548,160.259293 
	C307.150482,179.182587 300.302734,199.793259 288.589172,217.888885 
	C288.511414,218.009064 287.974670,217.832123 286.552643,217.663651 
	C293.258087,201.903992 301.061188,187.009415 308.468231,171.523819 
z"/>
<path fill="#000000" opacity="1.000000" stroke="none" 
	d="
M235.291916,268.870483 
	C239.740875,273.167725 241.017349,278.853394 243.691803,283.784180 
	C245.347183,286.836151 246.834503,289.979279 248.863022,294.005951 
	C254.442093,285.447021 256.945740,275.944275 262.813690,267.761261 
	C264.935242,270.854828 263.569427,272.248505 262.911652,273.646118 
	C259.862152,280.125488 256.941254,286.682129 253.520691,292.964081 
	C251.377060,296.900909 251.225723,300.286011 253.550110,304.125916 
	C254.880005,306.322876 256.479187,308.613495 256.190582,312.043396 
	C250.629639,312.678040 245.042068,312.355774 239.465027,312.204681 
	C238.349915,312.174469 237.612167,311.387329 237.175751,310.482300 
	C230.685455,297.022797 224.228333,283.547272 217.416702,269.353149 
	C223.769974,268.160095 229.340805,268.778137 235.291916,268.870483 
z"/>
<path fill="#000000" opacity="1.000000" stroke="none" 
	d="
M338.462555,306.483521 
	C339.372314,308.260956 341.214630,309.083710 340.798584,312.182648 
	C331.924805,312.463165 322.895844,312.577911 312.848114,312.001923 
	C321.296478,299.938995 318.154510,287.036560 318.552368,274.652405 
	C318.692413,270.293060 319.625275,268.380402 324.395721,268.566467 
	C338.262726,269.107330 335.902222,266.598969 336.325836,280.480896 
	C336.587341,289.051208 334.849762,297.798920 338.462555,306.483521 
z"/>
<path fill="#000000" opacity="1.000000" stroke="none" 
	d="
M146.299408,244.365463 
	C143.611252,248.089920 142.190445,252.316208 138.521271,255.328629 
	C134.069595,251.202515 132.333435,245.359940 128.005569,240.682098 
	C126.443253,246.911392 128.323685,253.029404 126.633682,258.952728 
	C124.329536,257.971771 124.705948,256.477295 124.694725,255.276718 
	C124.635597,248.953125 124.641632,242.628510 124.686630,236.304688 
	C124.696815,234.872391 124.282188,233.035538 126.143547,232.444992 
	C128.190109,231.795685 129.086151,233.515549 129.971725,234.907059 
	C131.936798,237.994781 133.803802,241.145309 135.791351,244.218140 
	C136.755783,245.709229 137.427795,247.548248 139.710770,248.098862 
	C143.174103,244.341522 145.246918,239.571121 148.150604,235.369507 
	C149.137589,233.941345 149.945786,231.738846 152.272705,232.562637 
	C154.211380,233.248993 153.876526,235.298172 153.890839,236.905914 
	C153.945694,243.062988 153.958618,249.221451 153.877136,255.377960 
	C153.856339,256.949158 154.031021,259.127594 151.572266,258.979279 
	C149.509766,258.854889 149.745850,256.890411 149.727493,255.461929 
	C149.664230,250.538361 149.703156,245.613480 149.703156,239.193924 
	C148.049362,241.684143 147.259674,242.873215 146.299408,244.365463 
z"/>
<path fill="#000000" opacity="1.000000" stroke="none" 
	d="
M169.081635,312.371429 
	C166.046799,312.104401 163.334122,313.071930 160.339172,311.198914 
	C169.794479,298.632538 167.902115,283.357666 170.529739,268.909180 
	C173.296219,283.294067 171.548660,298.434052 180.938492,311.196381 
	C177.046295,313.295990 173.198242,311.959167 169.081635,312.371429 
z"/>
<path fill="#000000" opacity="1.000000" stroke="none" 
	d="
M289.974731,256.965302 
	C289.747803,257.958099 289.482239,259.109406 288.281219,259.131744 
	C282.959381,259.230560 277.633820,259.293396 272.312866,259.193359 
	C270.082916,259.151459 269.829132,257.291809 269.821381,255.553955 
	C269.792389,249.056946 269.794769,242.559692 269.819153,236.062653 
	C269.824158,234.725342 269.833923,232.982697 271.352631,232.689072 
	C277.148499,231.568481 282.961945,231.350555 289.710388,233.093475 
	C285.909363,236.551727 282.326721,235.065933 279.112762,235.238251 
	C276.307953,235.388626 274.253784,235.721573 274.225800,239.288742 
	C274.201599,242.365082 275.040588,243.922531 278.434387,243.899796 
	C280.533386,243.885742 283.155975,242.801117 284.739685,245.506210 
	C283.165070,248.306137 280.524567,247.146927 278.431763,247.118729 
	C274.539856,247.066315 274.295563,249.296295 274.221069,252.294800 
	C274.140106,255.553604 275.384430,256.786377 278.619812,256.661041 
	C282.105896,256.525909 285.606537,256.767090 289.549744,256.919678 
	C289.998657,256.995239 289.974731,256.965302 289.974731,256.965302 
z"/>
<path fill="#000000" opacity="1.000000" stroke="none" 
	d="
M216.447800,239.783020 
	C225.207428,238.532837 228.263992,241.099091 228.328094,249.402176 
	C228.383881,256.629517 228.383881,256.629517 226.438904,258.955475 
	C224.346268,258.497833 224.760056,256.760193 224.704468,255.362000 
	C224.605362,252.868256 224.729218,250.365021 224.612061,247.872711 
	C224.448883,244.401154 222.815445,242.059723 219.080856,242.235474 
	C215.728516,242.393250 214.035858,244.402939 214.068512,247.830978 
	C214.095459,250.659485 214.094070,253.492035 213.967468,256.316620 
	C213.907242,257.659912 213.577133,259.110077 211.735016,258.995850 
	C210.264008,258.904663 209.846878,257.731567 209.840866,256.507660 
	C209.804932,249.184830 209.804855,241.861664 209.837372,234.538803 
	C209.842743,233.327881 210.185883,232.122742 211.686523,232.029709 
	C213.526199,231.915695 213.522156,233.467209 214.028442,234.685349 
	C214.740982,236.399811 212.507599,239.326797 216.447800,239.783020 
z"/>
<path fill="#000000" opacity="1.000000" stroke="none" 
	d="
M373.079346,259.539368 
	C367.488647,261.104614 363.553741,259.300903 360.887238,254.769440 
	C358.601318,250.884689 359.293243,245.313217 362.360046,242.284164 
	C365.677368,239.007660 369.604370,238.514069 373.836945,240.221527 
	C376.081757,241.127121 377.710205,242.746033 378.660675,244.998001 
	C380.451843,249.241852 379.231171,251.038086 374.586273,251.308502 
	C371.347382,251.497086 368.018768,250.701523 364.825256,251.865326 
	C366.104401,257.538879 366.772369,257.684387 378.009247,254.821533 
	C377.754425,257.780945 375.516418,258.510742 373.079346,259.539368 
M372.283234,248.124847 
	C374.393341,248.374573 375.755951,247.910934 374.521851,245.453339 
	C373.267914,242.956116 371.199432,241.664230 368.385773,242.307205 
	C365.706512,242.919434 364.139404,244.551971 364.388367,247.497177 
	C366.911835,248.553604 369.276611,247.825043 372.283234,248.124847 
z"/>
<path fill="#000000" opacity="1.000000" stroke="none" 
	d="
M329.192505,239.829056 
	C337.743469,238.309372 341.252319,241.114929 341.338318,249.172379 
	C341.371826,252.311584 341.343781,255.451447 341.343781,259.040314 
	C337.998932,258.303802 335.193359,259.279114 332.274292,259.974030 
	C327.974030,260.997803 323.411865,257.575867 323.087921,253.666611 
	C322.759369,249.701843 326.058563,246.709000 330.948273,246.579697 
	C332.745972,246.532150 334.546021,246.572006 336.368652,246.572006 
	C335.353699,241.910660 335.353699,241.910660 325.513306,243.675003 
	C325.514954,241.335876 327.334961,240.772675 329.192505,239.829056 
M336.409210,254.954071 
	C338.455048,252.386383 337.645477,250.545212 334.747009,249.738113 
	C331.944763,248.957809 328.917633,248.627289 327.662170,252.226639 
	C326.770874,254.781891 328.368530,256.384552 330.546875,257.257629 
	C332.723389,258.129974 334.324799,256.661774 336.409210,254.954071 
z"/>
<path fill="#000000" opacity="1.000000" stroke="none" 
	d="
M175.190582,257.328552 
	C170.845108,258.995605 166.562363,260.866669 161.995895,259.532471 
	C158.658432,258.557404 156.488449,256.142181 156.899292,252.487747 
	C157.312027,248.816574 160.022705,247.120117 163.463531,246.766296 
	C165.721054,246.534149 168.021835,246.722412 170.358795,246.722412 
	C169.125885,241.927048 169.125885,241.927048 159.205994,243.450150 
	C161.112518,239.459656 164.426819,239.186310 167.924835,239.393707 
	C172.051575,239.638367 174.397781,242.145981 174.906113,245.964890 
	C175.385284,249.564835 175.155197,253.259186 175.190582,257.328552 
M162.277954,256.070740 
	C165.021851,258.654144 167.394867,257.304443 169.636765,255.310349 
	C170.873245,254.210541 171.318588,252.628662 170.408127,251.292511 
	C168.913986,249.099838 166.408600,248.898651 164.180801,249.581665 
	C161.259735,250.477234 160.677872,252.763992 162.277954,256.070740 
z"/>
<path fill="#000000" opacity="1.000000" stroke="none" 
	d="
M248.924286,245.789734 
	C249.280945,250.329514 249.522415,254.455078 248.881226,258.894135 
	C246.097946,258.664185 243.528046,258.713440 240.889175,259.762543 
	C237.701660,261.029816 234.634827,259.743561 232.404312,257.132599 
	C230.780350,255.231705 230.388382,252.991943 231.533676,250.624710 
	C233.041107,247.508957 235.705460,246.577805 238.928406,246.637085 
	C240.712891,246.669907 242.498459,246.642944 244.325592,246.642944 
	C243.171555,241.777588 243.171555,241.777588 233.243271,243.555191 
	C234.553787,239.644867 237.770172,239.389679 240.752228,239.316757 
	C244.862228,239.216263 247.660873,241.310211 248.924286,245.789734 
M244.292419,254.605515 
	C245.300766,252.194626 244.914246,250.243622 242.153595,249.580215 
	C239.862000,249.029556 237.406204,248.830856 235.874527,251.224503 
	C234.906296,252.737640 234.915771,254.459518 236.131714,255.867218 
	C237.957718,257.981262 240.127029,257.990051 242.362000,256.488129 
	C242.907013,256.121857 243.370712,255.634567 244.292419,254.605515 
z"/>
<path fill="#000000" opacity="1.000000" stroke="none" 
	d="
M290.011658,257.009094 
	C290.016174,255.670395 289.776367,253.997330 292.024292,254.913712 
	C293.084595,255.345932 293.960144,256.211212 294.993469,256.733826 
	C297.533539,258.018463 300.239014,258.052399 301.365479,255.206238 
	C302.512970,252.307083 299.596588,251.831100 297.655426,251.023865 
	C297.194092,250.832031 296.730347,250.645584 296.263733,250.467026 
	C293.352905,249.352982 290.500793,247.993164 290.858978,244.258835 
	C291.190796,240.799393 293.975464,239.767059 296.936981,239.408554 
	C300.435486,238.985062 303.764221,239.169144 305.750641,243.879150 
	C303.225769,243.182877 301.423737,242.505524 299.561951,242.226257 
	C297.896606,241.976456 296.001038,242.128601 295.577515,244.252792 
	C295.200958,246.141449 296.854950,246.791656 298.218262,247.378418 
	C299.893463,248.099396 301.690155,248.549011 303.335785,249.324921 
	C305.287140,250.244949 306.354828,251.821747 306.295105,254.106491 
	C306.230347,256.585175 304.932983,258.110870 302.794983,259.095032 
	C298.335297,261.147858 294.371033,260.006927 290.316711,257.094421 
	C289.974731,256.965302 289.998657,256.995239 290.011658,257.009094 
z"/>
<path fill="#000000" opacity="1.000000" stroke="none" 
	d="
M206.268524,251.062836 
	C208.392487,255.551331 206.678375,258.064575 202.717667,259.445709 
	C197.586014,261.235107 193.528061,259.655182 191.281021,254.995667 
	C193.637390,254.154953 194.835526,256.349976 196.571976,257.000916 
	C199.140854,257.963959 201.435364,257.683289 202.445465,255.108566 
	C203.487900,252.451462 201.035202,251.854416 199.157089,251.161957 
	C198.533478,250.932037 197.914001,250.689774 197.299164,250.437271 
	C194.462875,249.272568 191.499756,248.028107 191.843155,244.268280 
	C192.157242,240.829483 194.903580,239.716614 197.855026,239.348389 
	C201.369064,238.909988 204.598511,239.358017 206.672104,243.985245 
	C204.042770,243.223114 202.249420,242.530334 200.392166,242.219910 
	C198.919830,241.973846 197.184311,242.120178 196.640640,243.882187 
	C196.065979,245.744537 197.606644,246.568558 198.970093,247.183517 
	C201.377808,248.269455 204.054123,248.803177 206.268524,251.062836 
z"/>
<path fill="#000000" opacity="1.000000" stroke="none" 
	d="
M315.742157,242.848328 
	C313.527863,246.490494 314.183807,250.154037 314.772064,253.691605 
	C315.593475,258.631592 319.351349,256.969177 322.825348,256.211670 
	C322.081970,259.688049 319.793182,260.136871 317.524445,260.081909 
	C314.655792,260.012390 312.527710,258.508728 311.358215,255.784515 
	C310.401337,253.555542 310.744751,251.210098 310.667419,248.901367 
	C310.565338,245.854568 311.598145,242.350342 305.272217,241.285858 
	C310.106049,239.683746 312.119690,237.763779 313.087128,234.456345 
	C314.141968,238.323685 316.094604,240.499130 319.996582,240.062805 
	C319.200928,242.885696 317.279541,242.038345 315.742157,242.848328 
z"/>
<path fill="#000000" opacity="1.000000" stroke="none" 
	d="
M351.735779,242.840042 
	C349.553406,246.484955 350.205841,250.130417 350.798889,253.667053 
	C351.623230,258.583405 355.331757,257.040771 358.872009,256.212097 
	C357.971710,259.640472 355.675293,260.077423 353.428741,260.040253 
	C350.550446,259.992645 348.454865,258.452423 347.314819,255.719330 
	C346.383575,253.486786 346.727142,251.145081 346.671997,248.841873 
	C346.598419,245.769516 347.330048,242.400696 342.746582,240.960144 
	C346.604340,240.140747 347.493652,237.131271 349.579407,233.827637 
	C349.983154,238.488464 352.507141,240.037628 355.872528,240.494232 
	C355.182343,242.876511 353.271027,242.031891 351.735779,242.840042 
z"/>
<path fill="#000000" opacity="1.000000" stroke="none" 
	d="
M252.939911,254.705658 
	C252.949814,248.111725 252.903137,241.980652 253.029892,235.853180 
	C253.061310,234.334152 252.828491,232.069397 255.186356,232.077057 
	C257.585999,232.084839 257.229340,234.321030 257.246613,235.862122 
	C257.318878,242.322540 257.310486,248.784744 257.237854,255.245255 
	C257.220337,256.802155 257.524292,258.997528 255.094269,258.953033 
	C252.729050,258.909790 253.168274,256.729706 252.939911,254.705658 
z"/>
<path fill="#000000" opacity="1.000000" stroke="none" 
	d="
M315.853668,336.794312 
	C313.123474,339.280518 309.685272,339.598694 308.285736,337.083008 
	C306.709259,334.249207 306.782227,330.198578 308.489380,327.086517 
	C309.470123,325.298737 311.893921,326.316559 313.548767,326.886566 
	C316.079437,327.758179 317.706726,329.594727 317.716827,332.431915 
	C317.722260,333.962311 317.068451,335.321136 315.853668,336.794312 
z"/>
<path fill="#000000" opacity="1.000000" stroke="none" 
	d="
M179.674576,332.077545 
	C180.016968,328.382568 181.932312,326.517609 185.087708,326.086182 
	C187.386871,325.771820 189.427231,326.730408 190.690292,328.656860 
	C192.154053,330.889374 192.325836,333.371399 190.847900,335.720337 
	C189.380051,338.053223 187.212631,339.115509 184.464020,338.553162 
	C181.217072,337.888824 179.744781,335.713470 179.674576,332.077545 
M184.079056,331.395599 
	C183.233459,333.150513 183.726105,334.315002 185.700211,334.435181 
	C186.801147,334.502197 187.564209,333.584930 187.470718,332.515106 
	C187.306152,330.631775 186.292694,329.906311 184.079056,331.395599 
z"/>
<path fill="#000000" opacity="1.000000" stroke="none" 
	d="
M218.947189,338.029907 
	C216.138214,336.677979 214.792480,330.788391 216.429626,327.949310 
	C217.794830,325.581787 220.125351,326.168732 222.173355,326.614136 
	C224.205109,327.056030 225.676743,328.764221 224.830902,330.606750 
	C223.603043,333.281494 224.669556,335.299408 225.744980,337.288757 
	C223.618118,339.963867 221.266281,336.013763 218.947189,338.029907 
z"/>
<path fill="#000000" opacity="1.000000" stroke="none" 
	d="
M285.073792,326.201416 
	C289.753571,326.477142 292.326660,328.018768 290.112793,332.838531 
	C289.220734,334.780579 291.555939,335.697662 291.493744,338.122070 
	C288.435944,336.973022 284.955170,339.422577 282.459076,336.806702 
	C280.522400,334.777069 282.302399,328.173523 285.073792,326.201416 
z"/>
<path fill="#000000" opacity="1.000000" stroke="none" 
	d="
M183.092712,251.098343 
	C182.461792,254.066467 184.646881,258.593994 181.016022,258.696960 
	C177.095490,258.808197 179.098236,254.292343 178.865402,251.844421 
	C178.508041,248.087357 178.771515,244.271240 178.771515,239.500275 
	C183.075897,242.700867 187.125885,237.160156 192.476181,241.645020 
	C185.359131,241.853073 182.128036,244.576492 183.092712,251.098343 
z"/>
<path fill="#000000" opacity="1.000000" stroke="none" 
	d="
M176.942596,338.046021 
	C174.267471,339.127014 172.022614,335.958008 169.355453,337.996124 
	C168.636398,338.545563 167.805099,337.073486 167.741058,336.036560 
	C167.619247,334.064240 167.584961,332.086334 167.527115,330.110352 
	C167.451248,327.519012 168.490616,325.952148 171.309540,326.237000 
	C173.908203,326.499542 176.841446,327.206238 176.093872,330.448578 
	C175.437180,333.296692 176.820358,335.405334 176.942596,338.046021 
z"/>
<path fill="#000000" opacity="1.000000" stroke="none" 
	d="
M338.420471,327.812469 
	C344.070892,324.837982 345.468903,325.658264 345.286499,331.296204 
	C345.218109,333.410278 345.275452,335.528442 345.275452,337.622253 
	C339.106262,339.400482 338.008759,338.667023 337.936523,332.649750 
	C337.918701,331.164429 338.132721,329.676331 338.420471,327.812469 
z"/>
<path fill="#000000" opacity="1.000000" stroke="none" 
	d="
M335.255951,333.180908 
	C336.192657,337.330536 334.026184,338.717224 330.720428,338.750458 
	C329.178894,338.765961 327.179077,338.724823 326.769440,336.543274 
	C326.340454,334.258759 328.932129,335.079224 329.702545,333.988342 
	C326.527557,330.233643 326.541901,327.835907 329.701202,326.419098 
	C331.173523,325.758789 332.614044,325.814667 333.964966,326.710297 
	C335.521881,327.742462 335.045288,328.843719 334.086243,330.034668 
	C332.904968,331.501648 335.008942,331.843964 335.255951,333.180908 
z"/>
<path fill="#000000" opacity="1.000000" stroke="none" 
	d="
M305.491638,336.759216 
	C305.410492,337.829865 304.684998,338.544342 304.251770,338.264862 
	C300.968933,336.147339 297.681549,336.795135 294.141235,338.636810 
	C293.520935,333.912354 295.908173,330.776703 297.689270,327.625702 
	C298.981873,325.338928 300.854919,326.345001 301.835144,328.293060 
	C303.168762,330.943298 304.256256,333.717377 305.491638,336.759216 
z"/>
<path fill="#000000" opacity="1.000000" stroke="none" 
	d="
M210.679138,326.119934 
	C213.024612,327.994904 214.362076,336.352509 212.691727,337.745575 
	C210.838882,339.290833 208.217453,339.197571 206.783432,337.548676 
	C204.695740,335.148163 205.708786,331.848694 205.855621,328.940186 
	C205.991074,326.257233 208.256653,326.196991 210.679138,326.119934 
z"/>
<path fill="#000000" opacity="1.000000" stroke="none" 
	d="
M157.644684,326.675476 
	C160.668365,326.110779 163.539810,325.789581 164.855469,328.776154 
	C166.252213,331.946716 164.029968,333.536316 161.448334,334.804047 
	C160.817184,335.114014 160.450439,336.047058 160.063629,336.749542 
	C159.526657,337.724701 158.785233,338.263947 157.675964,337.988831 
	C156.551025,337.709747 156.084885,336.731262 156.107666,335.745483 
	C156.177490,332.723572 155.003372,329.512604 157.644684,326.675476 
z"/>
<path fill="#000000" opacity="1.000000" stroke="none" 
	d="
M278.474487,332.665588 
	C279.168427,334.506897 280.302887,335.883942 279.420349,338.082001 
	C276.057953,337.341949 272.560760,335.689667 269.012268,339.068085 
	C268.398132,333.954285 270.728333,330.953796 272.318359,327.877563 
	C273.375580,325.832153 275.370392,326.109222 276.559357,328.230927 
	C277.281494,329.519623 277.751312,330.949738 278.474487,332.665588 
z"/>
<path fill="#000000" opacity="1.000000" stroke="none" 
	d="
M266.158295,331.627045 
	C264.988800,334.528595 261.541962,334.537781 260.597717,337.523560 
	C260.224030,338.705139 258.036621,338.097992 257.897888,336.322083 
	C257.691650,333.682983 257.653961,331.002258 257.875427,328.367035 
	C258.061035,326.157959 259.978271,326.036255 261.676514,326.147766 
	C264.783447,326.351868 266.731079,327.728027 266.158295,331.627045 
z"/>
<path fill="#000000" opacity="1.000000" stroke="none" 
	d="
M194.688171,335.616455 
	C194.658783,333.526184 194.691956,331.879028 194.665710,330.232819 
	C194.634720,328.291046 194.856049,326.521301 197.287262,326.244904 
	C199.522064,325.990845 201.706863,326.219604 202.833832,328.470917 
	C203.835236,330.471375 203.356033,332.433228 201.453445,333.673370 
	C200.073807,334.572693 198.907211,335.393982 197.970642,336.914642 
	C196.661819,339.039734 195.324387,338.249390 194.688171,335.616455 
z"/>
<path fill="#000000" opacity="1.000000" stroke="none" 
	d="
M247.153412,326.319092 
	C249.950333,327.114075 248.820038,328.614105 248.010605,329.768768 
	C246.287079,332.227417 245.101303,334.856720 245.050964,339.004395 
	C240.309891,335.661255 241.578247,330.195984 237.696609,327.506622 
	C241.153290,325.427643 244.289429,328.759857 247.153412,326.319092 
z"/>
<path fill="#000000" opacity="1.000000" stroke="none" 
	d="
M232.081451,326.046967 
	C233.926819,326.144287 235.524124,325.884003 236.584900,327.824219 
	C235.403259,330.055664 233.794632,332.385834 234.225586,335.370361 
	C234.390717,336.514008 233.996002,337.857666 232.491272,337.923645 
	C230.908142,337.993103 230.622894,336.639923 230.699249,335.481659 
	C230.902512,332.398834 230.247665,329.693115 227.682388,327.932678 
	C228.619980,325.759644 230.279800,326.205139 232.081451,326.046967 
z"/>
<path fill="#000000" opacity="1.000000" stroke="none" 
	d="
M319.415070,331.364624 
	C319.836884,329.328003 319.091034,326.683746 321.693390,326.706299 
	C324.650848,326.731903 324.028259,329.571991 323.955200,331.332489 
	C323.857239,333.693054 325.493286,337.687561 321.796082,337.820251 
	C318.580688,337.935638 319.890472,333.980865 319.415070,331.364624 
z"/>
</svg>