<svg version="1.1" id="Layer_1" xmlns="http://www.w3.org/2000/svg" xmlns:xlink="http://www.w3.org/1999/xlink" x="0px" y="0px"
	 width="100%" viewBox="0 0 350 97" enable-background="new 0 0 350 97" xml:space="preserve">
<path fill="#020202" opacity="1.000000" stroke="none" 
	d="
M350.000000,98.000000 
	C234.311325,98.000000 118.622650,98.000000 2.464474,97.531349 
	C2.038367,65.406273 2.081755,33.749851 2.584280,2.051749 
	C118.633354,2.010069 234.223282,2.010069 350.000000,2.010069 
	C350.000000,34.382923 350.000000,66.191460 350.000000,98.000000 
M347.145691,74.499878 
	C347.145691,51.420002 347.145691,28.340126 347.145691,5.300333 
	C232.564957,5.300333 118.554520,5.300333 4.538394,5.300333 
	C4.538394,35.322704 4.538394,65.042229 4.538394,94.715897 
	C118.880035,94.715897 232.909439,94.715897 347.145691,94.715897 
	C347.145691,88.121445 347.145691,81.810570 347.145691,74.499878 
z"/>
<path fill="#FBFBFB" opacity="1.000000" stroke="none" 
	d="
M350.500000,98.000000 
	C350.000000,66.191460 350.000000,34.382923 350.000000,2.010069 
	C234.223282,2.010069 118.633354,2.010069 2.304445,2.010919 
	C1.376982,2.007846 1.188491,2.003923 1.000000,2.000000 
	C2.500000,1.666667 3.999813,1.042668 5.500027,1.041703 
	C79.500000,0.994107 153.500000,1.000000 227.500000,1.000000 
	C268.666656,1.000000 309.833344,1.000000 351.000000,1.000000 
	C351.000000,33.333332 351.000000,65.666664 350.500000,98.000000 
z"/>
<path fill="#AEAEAE" opacity="1.000000" stroke="none" 
	d="
M1.000000,2.468657 
	C1.188491,2.003923 1.376982,2.007846 1.845308,2.052598 
	C2.081755,33.749851 2.038367,65.406273 1.997489,97.531349 
	C1.666666,96.674217 1.044755,95.348961 1.042354,94.022583 
	C0.987394,63.660900 1.000000,33.299095 1.000000,2.468657 
z"/>
<path fill="#FCFCFC" opacity="1.000000" stroke="none" 
	d="
M347.145691,74.999786 
	C347.145691,81.810570 347.145691,88.121445 347.145691,94.715897 
	C232.909439,94.715897 118.880035,94.715897 4.538394,94.715897 
	C4.538394,65.042229 4.538394,35.322704 4.538394,5.300333 
	C118.554520,5.300333 232.564957,5.300333 347.145691,5.300333 
	C347.145691,28.340126 347.145691,51.420002 347.145691,74.999786 
M10.999173,63.499996 
	C10.999173,71.929436 10.999173,80.358879 10.999173,88.733948 
	C66.154449,88.733948 120.733849,88.733948 175.168701,88.733948 
	C175.168701,62.737888 175.168701,37.006245 175.168701,11.293383 
	C120.317924,11.293383 65.765251,11.293383 10.999173,11.293383 
	C10.999173,28.555580 10.999173,45.527790 10.999173,63.499996 
M221.786011,35.195213 
	C220.974884,35.371849 220.160217,35.533794 219.353210,35.727612 
	C215.516418,36.649097 213.219894,38.970543 213.026001,43.005852 
	C212.827103,47.145489 215.317963,49.416809 218.856110,50.751293 
	C220.403015,51.334736 222.129089,51.464325 223.641861,52.109398 
	C224.603012,52.519249 225.488083,53.390785 226.060913,54.278725 
	C226.269562,54.602119 225.546082,56.092186 225.125336,56.149429 
	C223.904114,56.315590 222.536453,56.267750 221.378922,55.865051 
	C218.765015,54.955688 216.242889,53.782486 213.021790,52.441078 
	C213.797226,59.766621 216.800140,62.332596 223.174637,62.568871 
	C229.011246,62.785206 233.201416,60.141148 233.938049,55.776993 
	C234.725433,51.112236 232.149384,48.104256 225.896851,46.162544 
	C223.885010,45.537773 221.966812,44.611507 220.005768,43.823174 
	C220.172348,43.086514 220.338943,42.349854 220.505539,41.613194 
	C222.146286,41.714680 223.870392,41.531487 225.408936,41.982006 
	C227.941620,42.723629 230.354187,43.875477 233.447845,45.104942 
	C232.387924,37.595856 230.316010,35.941181 221.786011,35.195213 
M265.138947,51.662380 
	C263.932983,54.982639 262.727020,58.302902 261.357666,62.073021 
	C265.204559,61.603386 268.588226,63.353687 271.011871,58.978863 
	C271.695862,57.744205 278.702972,57.862995 279.377319,59.154049 
	C281.950134,64.079628 285.479309,61.279243 289.015198,61.903893 
	C285.520264,52.929409 282.230408,44.481491 279.074066,36.376507 
	C273.119720,34.396271 270.098816,36.518948 268.828064,42.164581 
	C268.146484,45.192699 266.607635,48.027855 265.138947,51.662380 
M323.523712,61.999645 
	C327.616638,61.999645 331.709564,61.999645 335.947052,61.999645 
	C335.947052,60.578384 335.975555,59.759796 335.939545,58.944061 
	C335.898132,58.006100 335.799591,57.070663 335.730255,56.190151 
	C325.152710,55.327915 325.152710,55.327915 325.639282,51.754242 
	C328.363708,51.754242 331.134216,51.754242 334.178162,51.754242 
	C334.178162,49.714134 334.178162,47.987694 334.178162,45.791126 
	C332.104706,45.791126 330.152008,45.840733 328.202789,45.779549 
	C325.242188,45.686634 325.243225,45.653973 325.600433,41.733017 
	C328.793091,41.733017 332.033722,41.733017 335.547119,41.733017 
	C335.427032,39.551189 335.332001,37.824707 335.243439,36.215805 
	C329.084778,36.215805 323.371826,36.215805 317.824036,36.215805 
	C317.824036,44.954205 317.824036,53.337322 317.824036,61.999641 
	C319.582184,61.999641 321.055908,61.999641 323.523712,61.999645 
M191.536789,44.503239 
	C191.536789,50.240540 191.536789,55.977840 191.536789,61.705887 
	C197.987122,61.705887 203.883087,61.705887 209.678040,61.705887 
	C209.678040,59.663052 209.678040,57.918346 209.678040,55.886971 
	C207.115723,55.886971 204.804718,55.752708 202.515717,55.919865 
	C199.431808,56.145073 198.294495,55.107838 199.561188,51.595070 
	C202.453720,51.595070 205.333542,51.595070 208.265228,51.595070 
	C208.265228,49.488914 208.265228,47.881470 208.265228,46.538441 
	C205.559921,44.216801 200.123993,48.262455 198.426727,41.754280 
	C202.777100,41.754280 206.021439,41.754280 209.543137,41.754280 
	C209.428696,39.572243 209.337921,37.841190 209.251923,36.201103 
	C203.102539,36.201103 197.382935,36.201103 191.536758,36.201103 
	C191.536758,38.861073 191.536758,41.183254 191.536789,44.503239 
M298.169067,59.207573 
	C299.239502,65.021912 303.149719,60.728172 306.080627,62.050488 
	C306.080627,55.234856 306.080627,49.143669 306.080627,43.083477 
	C308.890289,42.906609 311.304352,42.754642 313.678467,42.605186 
	C313.678467,40.207481 313.678467,38.265587 313.678467,36.204659 
	C305.768188,36.204659 298.068512,36.204659 290.422607,36.204659 
	C290.422607,38.511532 290.422607,40.447407 290.422607,42.875778 
	C293.045959,42.875778 295.441040,42.875778 298.168579,42.875778 
	C298.168579,48.328629 298.168579,53.292248 298.169067,59.207573 
M244.563324,49.640850 
	C244.563324,53.698486 244.563324,57.756119 244.563324,61.662399 
	C247.473053,61.662399 249.689865,61.662399 252.210114,61.662399 
	C252.210114,55.244236 252.210114,49.162891 252.210114,42.690628 
	C254.936020,42.690628 257.342712,42.690628 259.730072,42.690628 
	C259.730072,40.224674 259.730072,38.163368 259.730072,36.145828 
	C251.888535,36.145828 244.333481,36.145828 236.973068,36.145828 
	C236.973068,38.493195 236.973068,40.550270 236.973068,42.951416 
	C239.614410,42.951416 241.876465,42.951416 244.563278,42.951416 
	C244.563278,45.098106 244.563278,46.892166 244.563324,49.640850 
z"/>
<path fill="#010101" opacity="1.000000" stroke="none" 
	d="
M10.999173,63.000000 
	C10.999173,45.527790 10.999173,28.555580 10.999173,11.293383 
	C65.765251,11.293383 120.317924,11.293383 175.168701,11.293383 
	C175.168701,37.006245 175.168701,62.737888 175.168701,88.733948 
	C120.733849,88.733948 66.154449,88.733948 10.999173,88.733948 
	C10.999173,80.358879 10.999173,71.929436 10.999173,63.000000 
M26.034870,49.467587 
	C27.005173,50.712013 27.975475,51.956440 29.414232,53.801662 
	C31.997738,50.204418 34.125217,47.242138 37.155312,43.023067 
	C37.155312,49.021282 37.155312,53.507515 37.155312,58.420937 
	C39.924294,56.135967 40.585022,45.394604 38.573025,36.550694 
	C35.135807,41.291458 32.294949,45.209702 29.401054,49.201096 
	C25.679544,45.752018 24.626898,40.029930 19.482906,37.452625 
	C19.482906,44.999760 19.482906,51.490726 19.482906,57.981693 
	C20.111174,58.053528 20.739441,58.125362 21.367710,58.197197 
	C21.622688,53.674477 21.877668,49.151756 22.181820,43.756828 
	C23.683485,45.942974 24.678865,47.392063 26.034870,49.467587 
M73.496178,37.934311 
	C72.107491,38.047848 70.718803,38.161385 69.405090,38.268791 
	C68.645035,55.416813 68.760406,56.467861 71.806328,58.127342 
	C71.941643,55.725773 72.068665,53.471416 72.185310,51.401180 
	C79.007103,48.430378 77.959709,58.985512 84.041763,57.847473 
	C82.517166,55.406765 81.151855,53.221062 79.806847,51.067856 
	C84.787689,46.761112 85.405197,41.572124 81.082397,39.199154 
	C79.193726,38.162376 76.649712,38.319405 73.496178,37.934311 
M104.273636,41.955704 
	C102.065262,40.552872 100.010979,38.444122 97.610756,37.920177 
	C94.378105,37.214527 91.108810,38.437531 90.349335,42.279987 
	C89.603523,46.053280 92.422112,47.507786 95.382072,48.572594 
	C96.940117,49.133076 98.683388,49.352970 100.055840,50.194832 
	C100.998245,50.772900 102.067757,52.239605 101.944847,53.156952 
	C101.816452,54.115314 100.176605,55.722973 99.462158,55.592915 
	C97.229553,55.186489 95.099228,54.146679 92.977074,53.240395 
	C92.133591,52.880173 91.415535,52.226254 90.640366,51.706047 
	C90.210411,52.237003 89.780457,52.767960 89.350494,53.298912 
	C91.295341,54.872723 93.077499,57.411495 95.226608,57.773838 
	C97.858643,58.217613 101.237762,57.523949 103.493279,56.075443 
	C106.326141,54.256168 105.419060,50.070229 102.133194,48.298252 
	C100.262733,47.289570 97.978004,47.045685 96.115799,46.026318 
	C94.865746,45.342045 94.029259,43.902267 93.007729,42.800518 
	C94.411629,41.899296 95.807640,40.302048 97.221581,40.286007 
	C98.737656,40.268806 100.222404,41.856647 101.816734,42.509995 
	C102.601349,42.831532 103.602386,42.624973 104.273636,41.955704 
M57.454365,41.960655 
	C56.612617,40.638855 55.770866,39.317059 54.929115,37.995258 
	C54.220383,38.518543 53.159019,38.890099 52.858315,39.588955 
	C50.295238,45.545662 47.870308,51.561810 45.404007,57.560154 
	C45.624451,58.078571 45.844894,58.596989 46.065342,59.115406 
	C51.775459,50.053120 57.740753,52.375710 63.798370,57.392078 
	C61.807129,52.473171 59.815887,47.554264 57.454365,41.960655 
M148.651047,56.855652 
	C149.481140,57.278362 150.311234,57.701077 152.085373,58.604534 
	C149.199005,51.636574 146.821320,45.805874 144.342361,40.018559 
	C144.004700,39.230263 143.215607,38.202606 142.535538,38.121193 
	C141.914429,38.046844 140.822418,38.962864 140.513565,39.687695 
	C137.978531,45.636864 135.578064,51.643383 133.136765,57.632492 
	C133.528183,57.888668 133.919586,58.144840 134.311005,58.401016 
	C135.051819,57.606152 135.937759,56.902973 136.508072,56.000370 
	C138.831955,52.322430 145.586884,52.349777 148.651047,56.855652 
M116.695709,49.000057 
	C119.303062,49.000057 121.910408,49.000057 124.545944,49.000057 
	C124.835243,52.341324 125.082169,55.193192 125.329094,58.045059 
	C125.702507,57.993904 126.075928,57.942749 126.449341,57.891594 
	C126.449341,51.276814 126.449341,44.662037 126.449341,38.047256 
	C126.022957,38.034008 125.596565,38.020760 125.170181,38.007507 
	C124.964035,40.809711 124.757881,43.611916 124.554771,46.372871 
	C120.888649,46.372871 117.653908,46.372871 114.412430,46.372871 
	C114.128929,43.363735 113.874390,40.662052 113.619858,37.960369 
	C113.240746,38.013073 112.861641,38.065773 112.482529,38.118477 
	C112.482529,44.726742 112.482529,51.335011 112.482529,57.943279 
	C113.021973,57.947872 113.561424,57.952465 114.100868,57.957062 
	C114.100868,56.099865 113.901909,54.213108 114.171875,52.396019 
	C114.347450,51.214256 115.205917,50.133949 116.695709,49.000057 
M159.743668,58.059811 
	C163.078354,58.059811 166.413040,58.059811 169.747726,58.059811 
	C169.773392,57.383808 169.799057,56.707806 169.824722,56.031807 
	C166.660721,55.772266 163.496719,55.512726 159.806580,55.210026 
	C159.806580,49.405556 159.806580,43.723160 159.806580,36.765198 
	C158.370834,38.339905 157.355026,38.934307 157.343689,39.547291 
	C157.236206,45.356224 157.272690,51.168797 157.377686,56.978336 
	C157.384247,57.341797 158.311966,57.688614 159.743668,58.059811 
z"/>
<path fill="#0C0C0C" opacity="1.000000" stroke="none" 
	d="
M222.191895,35.174061 
	C230.316010,35.941181 232.387924,37.595856 233.447845,45.104942 
	C230.354187,43.875477 227.941620,42.723629 225.408936,41.982006 
	C223.870392,41.531487 222.146286,41.714680 220.505539,41.613194 
	C220.338943,42.349854 220.172348,43.086514 220.005768,43.823174 
	C221.966812,44.611507 223.885010,45.537773 225.896851,46.162544 
	C232.149384,48.104256 234.725433,51.112236 233.938049,55.776993 
	C233.201416,60.141148 229.011246,62.785206 223.174637,62.568871 
	C216.800140,62.332596 213.797226,59.766621 213.021790,52.441078 
	C216.242889,53.782486 218.765015,54.955688 221.378922,55.865051 
	C222.536453,56.267750 223.904114,56.315590 225.125336,56.149429 
	C225.546082,56.092186 226.269562,54.602119 226.060913,54.278725 
	C225.488083,53.390785 224.603012,52.519249 223.641861,52.109398 
	C222.129089,51.464325 220.403015,51.334736 218.856110,50.751293 
	C215.317963,49.416809 212.827103,47.145489 213.026001,43.005852 
	C213.219894,38.970543 215.516418,36.649097 219.353210,35.727612 
	C220.160217,35.533794 220.974884,35.371849 222.191895,35.174061 
z"/>
<path fill="#060606" opacity="1.000000" stroke="none" 
	d="
M265.297302,51.306232 
	C266.607635,48.027855 268.146484,45.192699 268.828064,42.164581 
	C270.098816,36.518948 273.119720,34.396271 279.074066,36.376507 
	C282.230408,44.481491 285.520264,52.929409 289.015198,61.903893 
	C285.479309,61.279243 281.950134,64.079628 279.377319,59.154049 
	C278.702972,57.862995 271.695862,57.744205 271.011871,58.978863 
	C268.588226,63.353687 265.204559,61.603386 261.357666,62.073021 
	C262.727020,58.302902 263.932983,54.982639 265.297302,51.306232 
M275.517822,52.931316 
	C278.339264,51.745327 278.317078,51.424690 274.707611,45.456722 
	C273.956482,47.663536 273.201874,49.463242 272.822876,51.338848 
	C272.745026,51.724110 274.071350,52.393124 275.517822,52.931316 
z"/>
<path fill="#030303" opacity="1.000000" stroke="none" 
	d="
M323.026672,61.999641 
	C321.055908,61.999641 319.582184,61.999641 317.824036,61.999641 
	C317.824036,53.337322 317.824036,44.954205 317.824036,36.215805 
	C323.371826,36.215805 329.084778,36.215805 335.243439,36.215805 
	C335.332001,37.824707 335.427032,39.551189 335.547119,41.733017 
	C332.033722,41.733017 328.793091,41.733017 325.600433,41.733017 
	C325.243225,45.653973 325.242188,45.686634 328.202789,45.779549 
	C330.152008,45.840733 332.104706,45.791126 334.178162,45.791126 
	C334.178162,47.987694 334.178162,49.714134 334.178162,51.754242 
	C331.134216,51.754242 328.363708,51.754242 325.639282,51.754242 
	C325.152710,55.327915 325.152710,55.327915 335.730255,56.190151 
	C335.799591,57.070663 335.898132,58.006100 335.939545,58.944061 
	C335.975555,59.759796 335.947052,60.578384 335.947052,61.999645 
	C331.709564,61.999645 327.616638,61.999645 323.026672,61.999641 
z"/>
<path fill="#030303" opacity="1.000000" stroke="none" 
	d="
M191.536774,44.004337 
	C191.536758,41.183254 191.536758,38.861073 191.536758,36.201103 
	C197.382935,36.201103 203.102539,36.201103 209.251923,36.201103 
	C209.337921,37.841190 209.428696,39.572243 209.543137,41.754280 
	C206.021439,41.754280 202.777100,41.754280 198.426727,41.754280 
	C200.123993,48.262455 205.559921,44.216801 208.265228,46.538441 
	C208.265228,47.881470 208.265228,49.488914 208.265228,51.595070 
	C205.333542,51.595070 202.453720,51.595070 199.561188,51.595070 
	C198.294495,55.107838 199.431808,56.145073 202.515717,55.919865 
	C204.804718,55.752708 207.115723,55.886971 209.678040,55.886971 
	C209.678040,57.918346 209.678040,59.663052 209.678040,61.705887 
	C203.883087,61.705887 197.987122,61.705887 191.536789,61.705887 
	C191.536789,55.977840 191.536789,50.240540 191.536774,44.004337 
z"/>
<path fill="#0D0D0D" opacity="1.000000" stroke="none" 
	d="
M298.168823,58.731720 
	C298.168579,53.292248 298.168579,48.328629 298.168579,42.875778 
	C295.441040,42.875778 293.045959,42.875778 290.422607,42.875778 
	C290.422607,40.447407 290.422607,38.511532 290.422607,36.204659 
	C298.068512,36.204659 305.768188,36.204659 313.678467,36.204659 
	C313.678467,38.265587 313.678467,40.207481 313.678467,42.605186 
	C311.304352,42.754642 308.890289,42.906609 306.080627,43.083477 
	C306.080627,49.143669 306.080627,55.234856 306.080627,62.050488 
	C303.149719,60.728172 299.239502,65.021912 298.168823,58.731720 
z"/>
<path fill="#030303" opacity="1.000000" stroke="none" 
	d="
M244.563293,49.163536 
	C244.563278,46.892166 244.563278,45.098106 244.563278,42.951416 
	C241.876465,42.951416 239.614410,42.951416 236.973068,42.951416 
	C236.973068,40.550270 236.973068,38.493195 236.973068,36.145828 
	C244.333481,36.145828 251.888535,36.145828 259.730072,36.145828 
	C259.730072,38.163368 259.730072,40.224674 259.730072,42.690628 
	C257.342712,42.690628 254.936020,42.690628 252.210114,42.690628 
	C252.210114,49.162891 252.210114,55.244236 252.210114,61.662399 
	C249.689865,61.662399 247.473053,61.662399 244.563324,61.662399 
	C244.563324,57.756119 244.563324,53.698486 244.563293,49.163536 
z"/>
<path fill="#DBDBDB" opacity="1.000000" stroke="none" 
	d="
M25.854559,49.154369 
	C24.678865,47.392063 23.683485,45.942974 22.181820,43.756828 
	C21.877668,49.151756 21.622688,53.674477 21.367710,58.197197 
	C20.739441,58.125362 20.111174,58.053528 19.482906,57.981693 
	C19.482906,51.490726 19.482906,44.999760 19.482906,37.452625 
	C24.626898,40.029930 25.679544,45.752018 29.401054,49.201096 
	C32.294949,45.209702 35.135807,41.291458 38.573025,36.550694 
	C40.585022,45.394604 39.924294,56.135967 37.155312,58.420937 
	C37.155312,53.507515 37.155312,49.021282 37.155312,43.023067 
	C34.125217,47.242138 31.997738,50.204418 29.414232,53.801662 
	C27.975475,51.956440 27.005173,50.712013 25.854559,49.154369 
z"/>
<path fill="#DCDCDC" opacity="1.000000" stroke="none" 
	d="
M73.949738,37.934311 
	C76.649712,38.319405 79.193726,38.162376 81.082397,39.199154 
	C85.405197,41.572124 84.787689,46.761112 79.806847,51.067856 
	C81.151855,53.221062 82.517166,55.406765 84.041763,57.847473 
	C77.959709,58.985512 79.007103,48.430378 72.185310,51.401180 
	C72.068665,53.471416 71.941643,55.725773 71.806328,58.127342 
	C68.760406,56.467861 68.645035,55.416813 69.405090,38.268791 
	C70.718803,38.161385 72.107491,38.047848 73.949738,37.934311 
M78.928734,40.993744 
	C76.737740,40.778637 74.546745,40.563534 72.297882,40.342747 
	C72.297882,43.373882 72.297882,45.762615 72.297882,48.132977 
	C81.024895,48.536400 82.626297,47.016632 78.928734,40.993744 
z"/>
<path fill="#E9E9E9" opacity="1.000000" stroke="none" 
	d="
M104.389557,42.306549 
	C103.602386,42.624973 102.601349,42.831532 101.816734,42.509995 
	C100.222404,41.856647 98.737656,40.268806 97.221581,40.286007 
	C95.807640,40.302048 94.411629,41.899296 93.007729,42.800518 
	C94.029259,43.902267 94.865746,45.342045 96.115799,46.026318 
	C97.978004,47.045685 100.262733,47.289570 102.133194,48.298252 
	C105.419060,50.070229 106.326141,54.256168 103.493279,56.075443 
	C101.237762,57.523949 97.858643,58.217613 95.226608,57.773838 
	C93.077499,57.411495 91.295341,54.872723 89.350494,53.298912 
	C89.780457,52.767960 90.210411,52.237003 90.640366,51.706047 
	C91.415535,52.226254 92.133591,52.880173 92.977074,53.240395 
	C95.099228,54.146679 97.229553,55.186489 99.462158,55.592915 
	C100.176605,55.722973 101.816452,54.115314 101.944847,53.156952 
	C102.067757,52.239605 100.998245,50.772900 100.055840,50.194832 
	C98.683388,49.352970 96.940117,49.133076 95.382072,48.572594 
	C92.422112,47.507786 89.603523,46.053280 90.349335,42.279987 
	C91.108810,38.437531 94.378105,37.214527 97.610756,37.920177 
	C100.010979,38.444122 102.065262,40.552872 104.389557,42.306549 
z"/>
<path fill="#E8E8E8" opacity="1.000000" stroke="none" 
	d="
M57.639503,42.298004 
	C59.815887,47.554264 61.807129,52.473171 63.798370,57.392078 
	C57.740753,52.375710 51.775459,50.053120 46.065342,59.115406 
	C45.844894,58.596989 45.624451,58.078571 45.404007,57.560154 
	C47.870308,51.561810 50.295238,45.545662 52.858315,39.588955 
	C53.159019,38.890099 54.220383,38.518543 54.929115,37.995258 
	C55.770866,39.317059 56.612617,40.638855 57.639503,42.298004 
M54.571384,51.041698 
	C55.673630,50.974892 56.775875,50.908085 58.414394,50.808773 
	C57.104160,47.770069 55.949600,45.092403 54.533054,41.807129 
	C53.152172,45.265282 52.076664,47.958683 50.915272,50.867165 
	C52.121201,50.941566 52.931232,50.991547 54.571384,51.041698 
z"/>
<path fill="#E8E8E8" opacity="1.000000" stroke="none" 
	d="
M148.435883,56.478935 
	C145.586884,52.349777 138.831955,52.322430 136.508072,56.000370 
	C135.937759,56.902973 135.051819,57.606152 134.311005,58.401016 
	C133.919586,58.144840 133.528183,57.888668 133.136765,57.632492 
	C135.578064,51.643383 137.978531,45.636864 140.513565,39.687695 
	C140.822418,38.962864 141.914429,38.046844 142.535538,38.121193 
	C143.215607,38.202606 144.004700,39.230263 144.342361,40.018559 
	C146.821320,45.805874 149.199005,51.636574 152.085373,58.604534 
	C150.311234,57.701077 149.481140,57.278362 148.435883,56.478935 
M139.167984,50.747112 
	C141.362869,50.747112 143.557755,50.747112 146.097885,50.747112 
	C144.856628,47.727760 143.752197,45.041256 142.390518,41.728977 
	C141.120758,44.833687 140.076126,47.387901 139.167984,50.747112 
z"/>
<path fill="#FEFEFE" opacity="1.000000" stroke="none" 
	d="
M116.227081,49.004120 
	C115.205917,50.133949 114.347450,51.214256 114.171875,52.396019 
	C113.901909,54.213108 114.100868,56.099865 114.100868,57.957062 
	C113.561424,57.952465 113.021973,57.947872 112.482529,57.943279 
	C112.482529,51.335011 112.482529,44.726742 112.482529,38.118477 
	C112.861641,38.065773 113.240746,38.013073 113.619858,37.960369 
	C113.874390,40.662052 114.128929,43.363735 114.412430,46.372871 
	C117.653908,46.372871 120.888649,46.372871 124.554771,46.372871 
	C124.757881,43.611916 124.964035,40.809711 125.170181,38.007507 
	C125.596565,38.020760 126.022957,38.034008 126.449341,38.047256 
	C126.449341,44.662037 126.449341,51.276814 126.449341,57.891594 
	C126.075928,57.942749 125.702507,57.993904 125.329094,58.045059 
	C125.082169,55.193192 124.835243,52.341324 124.545944,49.000057 
	C121.910408,49.000057 119.303062,49.000057 116.227081,49.004120 
z"/>
<path fill="#DEDEDE" opacity="1.000000" stroke="none" 
	d="
M159.277405,58.051495 
	C158.311966,57.688614 157.384247,57.341797 157.377686,56.978336 
	C157.272690,51.168797 157.236206,45.356224 157.343689,39.547291 
	C157.355026,38.934307 158.370834,38.339905 159.806580,36.765198 
	C159.806580,43.723160 159.806580,49.405556 159.806580,55.210026 
	C163.496719,55.512726 166.660721,55.772266 169.824722,56.031807 
	C169.799057,56.707806 169.773392,57.383808 169.747726,58.059811 
	C166.413040,58.059811 163.078354,58.059811 159.277405,58.051495 
z"/>
<path fill="#D4D4D4" opacity="1.000000" stroke="none" 
	d="
M275.134155,52.931335 
	C274.071350,52.393124 272.745026,51.724110 272.822876,51.338848 
	C273.201874,49.463242 273.956482,47.663536 274.707611,45.456722 
	C278.317078,51.424690 278.339264,51.745327 275.134155,52.931335 
z"/>
<path fill="#0B0B0B" opacity="1.000000" stroke="none" 
	d="
M79.339752,41.170700 
	C82.626297,47.016632 81.024895,48.536400 72.297882,48.132977 
	C72.297882,45.762615 72.297882,43.373882 72.297882,40.342747 
	C74.546745,40.563534 76.737740,40.778637 79.339752,41.170700 
z"/>
<path fill="#0E0E0E" opacity="1.000000" stroke="none" 
	d="
M54.156326,51.041611 
	C52.931232,50.991547 52.121201,50.941566 50.915272,50.867165 
	C52.076664,47.958683 53.152172,45.265282 54.533054,41.807129 
	C55.949600,45.092403 57.104160,47.770069 58.414394,50.808773 
	C56.775875,50.908085 55.673630,50.974892 54.156326,51.041611 
z"/>
<path fill="#0E0E0E" opacity="1.000000" stroke="none" 
	d="
M139.099747,50.344612 
	C140.076126,47.387901 141.120758,44.833687 142.390518,41.728977 
	C143.752197,45.041256 144.856628,47.727760 146.097885,50.747112 
	C143.557755,50.747112 141.362869,50.747112 139.099747,50.344612 
z"/>
</svg>